<svg xmlns="http://www.w3.org/2000/svg" viewBox="0 0 512 512" shape-rendering="crispEdges">
<defs><radialGradient id="bgverify" cx=".5" cy=".42" r=".72"><stop offset="0" stop-color="#4a2a82"/><stop offset="1" stop-color="#1c0e36"/></radialGradient></defs>
<rect width="512" height="512" fill="url(#bgverify)"/><rect x="96" y="176" width="16" height="16" fill="#1a0d24"/><rect x="96" y="192" width="16" height="16" fill="#1a0d24"/><rect x="96" y="208" width="16" height="16" fill="#1a0d24"/><rect x="96" y="224" width="16" height="16" fill="#1a0d24"/><rect x="96" y="240" width="16" height="16" fill="#1a0d24"/><rect x="96" y="256" width="16" height="16" fill="#1a0d24"/><rect x="112" y="144" width="16" height="16" fill="#1a0d24"/><rect x="112" y="160" width="16" height="16" fill="#1a0d24"/><rect x="112" y="176" width="16" height="16" fill="#f4c67f"/><rect x="112" y="192" width="16" height="16" fill="#f4c67f"/><rect x="112" y="208" width="16" height="16" fill="#f4c67f"/><rect x="112" y="224" width="16" height="16" fill="#f4c67f"/><rect x="112" y="240" width="16" height="16" fill="#d9954a"/><rect x="112" y="256" width="16" height="16" fill="#d9954a"/><rect x="112" y="272" width="16" height="16" fill="#1a0d24"/><rect x="112" y="288" width="16" height="16" fill="#1a0d24"/><rect x="128" y="128" width="16" height="16" fill="#1a0d24"/><rect x="128" y="144" width="16" height="16" fill="#f4c67f"/><rect x="128" y="160" width="16" height="16" fill="#f4c67f"/><rect x="128" y="176" width="16" height="16" fill="#c9a8ff"/><rect x="128" y="192" width="16" height="16" fill="#c9a8ff"/><rect x="128" y="208" width="16" height="16" fill="#c9a8ff"/><rect x="128" y="224" width="16" height="16" fill="#c9a8ff"/><rect x="128" y="240" width="16" height="16" fill="#a57ef0"/><rect x="128" y="256" width="16" height="16" fill="#a57ef0"/><rect x="128" y="272" width="16" height="16" fill="#d9954a"/><rect x="128" y="288" width="16" height="16" fill="#d9954a"/><rect x="128" y="304" width="16" height="16" fill="#1a0d24"/><rect x="144" y="112" width="16" height="16" fill="#1a0d24"/><rect x="144" y="128" width="16" height="16" fill="#f4c67f"/><rect x="144" y="144" width="16" height="16" fill="#c9a8ff"/><rect x="144" y="160" width="16" height="16" fill="#c9a8ff"/><rect x="144" y="176" width="16" height="16" fill="#6fe0ff"/><rect x="144" y="192" width="16" height="16" fill="#c9a8ff"/><rect x="144" y="208" width="16" height="16" fill="#c9a8ff"/><rect x="144" y="224" width="16" height="16" fill="#ffe066"/><rect x="144" y="240" width="16" height="16" fill="#a57ef0"/><rect x="144" y="256" width="16" height="16" fill="#a57ef0"/><rect x="144" y="272" width="16" height="16" fill="#a57ef0"/><rect x="144" y="288" width="16" height="16" fill="#d9954a"/><rect x="144" y="304" width="16" height="16" fill="#d9954a"/><rect x="144" y="320" width="16" height="16" fill="#1a0d24"/><rect x="160" y="112" width="16" height="16" fill="#1a0d24"/><rect x="160" y="128" width="16" height="16" fill="#f4c67f"/><rect x="160" y="144" width="16" height="16" fill="#f6eeff"/><rect x="160" y="160" width="16" height="16" fill="#c9a8ff"/><rect x="160" y="176" width="16" height="16" fill="#c9a8ff"/><rect x="160" y="192" width="16" height="16" fill="#c9a8ff"/><rect x="160" y="208" width="16" height="16" fill="#a57ef0"/><rect x="160" y="224" width="16" height="16" fill="#a57ef0"/><rect x="160" y="240" width="16" height="16" fill="#a57ef0"/><rect x="160" y="256" width="16" height="16" fill="#ff6fae"/><rect x="160" y="272" width="16" height="16" fill="#a57ef0"/><rect x="160" y="288" width="16" height="16" fill="#7a4fcf"/><rect x="160" y="304" width="16" height="16" fill="#d9954a"/><rect x="160" y="320" width="16" height="16" fill="#1a0d24"/><rect x="176" y="96" width="16" height="16" fill="#1a0d24"/><rect x="176" y="112" width="16" height="16" fill="#f4c67f"/><rect x="176" y="128" width="16" height="16" fill="#c9a8ff"/><rect x="176" y="144" width="16" height="16" fill="#c9a8ff"/><rect x="176" y="160" width="16" height="16" fill="#c9a8ff"/><rect x="176" y="176" width="16" height="16" fill="#c9a8ff"/><rect x="176" y="192" width="16" height="16" fill="#a57ef0"/><rect x="176" y="208" width="16" height="16" fill="#1a0d24"/><rect x="176" y="224" width="16" height="16" fill="#1a0d24"/><rect x="176" y="240" width="16" height="16" fill="#a57ef0"/><rect x="176" y="256" width="16" height="16" fill="#a57ef0"/><rect x="176" y="272" width="16" height="16" fill="#7a4fcf"/><rect x="176" y="288" width="16" height="16" fill="#7a4fcf"/><rect x="176" y="304" width="16" height="16" fill="#7a4fcf"/><rect x="176" y="320" width="16" height="16" fill="#a8672c"/><rect x="176" y="336" width="16" height="16" fill="#1a0d24"/><rect x="192" y="96" width="16" height="16" fill="#1a0d24"/><rect x="192" y="112" width="16" height="16" fill="#f4c67f"/><rect x="192" y="128" width="16" height="16" fill="#c9a8ff"/><rect x="192" y="144" width="16" height="16" fill="#ff6fae"/><rect x="192" y="160" width="16" height="16" fill="#c9a8ff"/><rect x="192" y="176" width="16" height="16" fill="#a57ef0"/><rect x="192" y="192" width="16" height="16" fill="#1a0d24"/><rect x="192" y="240" width="16" height="16" fill="#1a0d24"/><rect x="192" y="256" width="16" height="16" fill="#7a4fcf"/><rect x="192" y="272" width="16" height="16" fill="#7a4fcf"/><rect x="192" y="288" width="16" height="16" fill="#ffffff"/><rect x="192" y="304" width="16" height="16" fill="#d9954a"/><rect x="192" y="320" width="16" height="16" fill="#a8672c"/><rect x="192" y="336" width="16" height="16" fill="#1a0d24"/><rect x="208" y="96" width="16" height="16" fill="#1a0d24"/><rect x="208" y="112" width="16" height="16" fill="#c9a8ff"/><rect x="208" y="128" width="16" height="16" fill="#c9a8ff"/><rect x="208" y="144" width="16" height="16" fill="#c9a8ff"/><rect x="208" y="160" width="16" height="16" fill="#c9a8ff"/><rect x="208" y="176" width="16" height="16" fill="#1a0d24"/><rect x="208" y="256" width="16" height="16" fill="#1a0d24"/><rect x="208" y="272" width="16" height="16" fill="#7a4fcf"/><rect x="208" y="288" width="16" height="16" fill="#d9954a"/><rect x="208" y="304" width="16" height="16" fill="#a8672c"/><rect x="208" y="320" width="16" height="16" fill="#a8672c"/><rect x="208" y="336" width="16" height="16" fill="#1a0d24"/><rect x="224" y="96" width="16" height="16" fill="#1a0d24"/><rect x="224" y="112" width="16" height="16" fill="#c9a8ff"/><rect x="224" y="128" width="16" height="16" fill="#c9a8ff"/><rect x="224" y="144" width="16" height="16" fill="#a57ef0"/><rect x="224" y="160" width="16" height="16" fill="#a57ef0"/><rect x="224" y="176" width="16" height="16" fill="#1a0d24"/><rect x="224" y="256" width="16" height="16" fill="#1a0d24"/><rect x="224" y="272" width="16" height="16" fill="#7a4fcf"/><rect x="224" y="288" width="16" height="16" fill="#d9954a"/><rect x="224" y="304" width="16" height="16" fill="#a8672c"/><rect x="224" y="320" width="16" height="16" fill="#a8672c"/><rect x="224" y="336" width="16" height="16" fill="#1a0d24"/><rect x="240" y="96" width="16" height="16" fill="#1a0d24"/><rect x="240" y="112" width="16" height="16" fill="#f4c67f"/><rect x="240" y="128" width="16" height="16" fill="#c9a8ff"/><rect x="240" y="144" width="16" height="16" fill="#a57ef0"/><rect x="240" y="160" width="16" height="16" fill="#a57ef0"/><rect x="240" y="176" width="16" height="16" fill="#a57ef0"/><rect x="240" y="192" width="16" height="16" fill="#1a0d24"/><rect x="240" y="240" width="16" height="16" fill="#1a0d24"/><rect x="240" y="256" width="16" height="16" fill="#7a4fcf"/><rect x="240" y="272" width="16" height="16" fill="#7a4fcf"/><rect x="240" y="288" width="16" height="16" fill="#7a4fcf"/><rect x="240" y="304" width="16" height="16" fill="#1a0d24"/><rect x="240" y="320" width="16" height="16" fill="#1a0d24"/><rect x="240" y="336" width="16" height="16" fill="#1a0d24"/><rect x="240" y="352" width="16" height="16" fill="#1a0d24"/><rect x="256" y="96" width="16" height="16" fill="#1a0d24"/><rect x="256" y="112" width="16" height="16" fill="#f4c67f"/><rect x="256" y="128" width="16" height="16" fill="#a57ef0"/><rect x="256" y="144" width="16" height="16" fill="#a57ef0"/><rect x="256" y="160" width="16" height="16" fill="#ffe066"/><rect x="256" y="176" width="16" height="16" fill="#a57ef0"/><rect x="256" y="192" width="16" height="16" fill="#a57ef0"/><rect x="256" y="208" width="16" height="16" fill="#1a0d24"/><rect x="256" y="224" width="16" height="16" fill="#1a0d24"/><rect x="256" y="240" width="16" height="16" fill="#7a4fcf"/><rect x="256" y="256" width="16" height="16" fill="#7a4fcf"/><rect x="256" y="272" width="16" height="16" fill="#1a0d24"/><rect x="256" y="288" width="16" height="16" fill="#1a0d24"/><rect x="256" y="304" width="16" height="16" fill="#34c26b"/><rect x="256" y="320" width="16" height="16" fill="#34c26b"/><rect x="256" y="336" width="16" height="16" fill="#34c26b"/><rect x="256" y="352" width="16" height="16" fill="#34c26b"/><rect x="256" y="368" width="16" height="16" fill="#1a0d24"/><rect x="256" y="384" width="16" height="16" fill="#1a0d24"/><rect x="272" y="112" width="16" height="16" fill="#1a0d24"/><rect x="272" y="128" width="16" height="16" fill="#d9954a"/><rect x="272" y="144" width="16" height="16" fill="#a57ef0"/><rect x="272" y="160" width="16" height="16" fill="#a57ef0"/><rect x="272" y="176" width="16" height="16" fill="#a57ef0"/><rect x="272" y="192" width="16" height="16" fill="#a57ef0"/><rect x="272" y="208" width="16" height="16" fill="#a57ef0"/><rect x="272" y="224" width="16" height="16" fill="#7a4fcf"/><rect x="272" y="240" width="16" height="16" fill="#7a4fcf"/><rect x="272" y="256" width="16" height="16" fill="#1a0d24"/><rect x="272" y="272" width="16" height="16" fill="#7ee8a2"/><rect x="272" y="288" width="16" height="16" fill="#7ee8a2"/><rect x="272" y="304" width="16" height="16" fill="#34c26b"/><rect x="272" y="320" width="16" height="16" fill="#ffffff"/><rect x="272" y="336" width="16" height="16" fill="#ffffff"/><rect x="272" y="352" width="16" height="16" fill="#34c26b"/><rect x="272" y="368" width="16" height="16" fill="#1f8f4b"/><rect x="272" y="384" width="16" height="16" fill="#1f8f4b"/><rect x="272" y="400" width="16" height="16" fill="#1a0d24"/><rect x="288" y="112" width="16" height="16" fill="#1a0d24"/><rect x="288" y="128" width="16" height="16" fill="#d9954a"/><rect x="288" y="144" width="16" height="16" fill="#a57ef0"/><rect x="288" y="160" width="16" height="16" fill="#7a4fcf"/><rect x="288" y="176" width="16" height="16" fill="#ffffff"/><rect x="288" y="192" width="16" height="16" fill="#a57ef0"/><rect x="288" y="208" width="16" height="16" fill="#7a4fcf"/><rect x="288" y="224" width="16" height="16" fill="#7a4fcf"/><rect x="288" y="240" width="16" height="16" fill="#7a4fcf"/><rect x="288" y="256" width="16" height="16" fill="#1a0d24"/><rect x="288" y="272" width="16" height="16" fill="#7ee8a2"/><rect x="288" y="288" width="16" height="16" fill="#34c26b"/><rect x="288" y="304" width="16" height="16" fill="#34c26b"/><rect x="288" y="320" width="16" height="16" fill="#34c26b"/><rect x="288" y="336" width="16" height="16" fill="#ffffff"/><rect x="288" y="352" width="16" height="16" fill="#ffffff"/><rect x="288" y="368" width="16" height="16" fill="#1f8f4b"/><rect x="288" y="384" width="16" height="16" fill="#1f8f4b"/><rect x="288" y="400" width="16" height="16" fill="#1a0d24"/><rect x="304" y="128" width="16" height="16" fill="#1a0d24"/><rect x="304" y="144" width="16" height="16" fill="#d9954a"/><rect x="304" y="160" width="16" height="16" fill="#a8672c"/><rect x="304" y="176" width="16" height="16" fill="#7a4fcf"/><rect x="304" y="192" width="16" height="16" fill="#7a4fcf"/><rect x="304" y="208" width="16" height="16" fill="#7a4fcf"/><rect x="304" y="224" width="16" height="16" fill="#6fe0ff"/><rect x="304" y="240" width="16" height="16" fill="#1a0d24"/><rect x="304" y="256" width="16" height="16" fill="#7ee8a2"/><rect x="304" y="272" width="16" height="16" fill="#34c26b"/><rect x="304" y="288" width="16" height="16" fill="#34c26b"/><rect x="304" y="304" width="16" height="16" fill="#34c26b"/><rect x="304" y="320" width="16" height="16" fill="#34c26b"/><rect x="304" y="336" width="16" height="16" fill="#34c26b"/><rect x="304" y="352" width="16" height="16" fill="#ffffff"/><rect x="304" y="368" width="16" height="16" fill="#ffffff"/><rect x="304" y="384" width="16" height="16" fill="#1f8f4b"/><rect x="304" y="400" width="16" height="16" fill="#1f8f4b"/><rect x="304" y="416" width="16" height="16" fill="#1a0d24"/><rect x="320" y="144" width="16" height="16" fill="#1a0d24"/><rect x="320" y="160" width="16" height="16" fill="#1a0d24"/><rect x="320" y="176" width="16" height="16" fill="#a8672c"/><rect x="320" y="192" width="16" height="16" fill="#a8672c"/><rect x="320" y="208" width="16" height="16" fill="#a8672c"/><rect x="320" y="224" width="16" height="16" fill="#a8672c"/><rect x="320" y="240" width="16" height="16" fill="#1a0d24"/><rect x="320" y="256" width="16" height="16" fill="#7ee8a2"/><rect x="320" y="272" width="16" height="16" fill="#34c26b"/><rect x="320" y="288" width="16" height="16" fill="#34c26b"/><rect x="320" y="304" width="16" height="16" fill="#34c26b"/><rect x="320" y="320" width="16" height="16" fill="#34c26b"/><rect x="320" y="336" width="16" height="16" fill="#ffffff"/><rect x="320" y="352" width="16" height="16" fill="#ffffff"/><rect x="320" y="368" width="16" height="16" fill="#1f8f4b"/><rect x="320" y="384" width="16" height="16" fill="#1f8f4b"/><rect x="320" y="400" width="16" height="16" fill="#1f8f4b"/><rect x="320" y="416" width="16" height="16" fill="#1a0d24"/><rect x="336" y="176" width="16" height="16" fill="#1a0d24"/><rect x="336" y="192" width="16" height="16" fill="#1a0d24"/><rect x="336" y="208" width="16" height="16" fill="#1a0d24"/><rect x="336" y="224" width="16" height="16" fill="#1a0d24"/><rect x="336" y="240" width="16" height="16" fill="#1a0d24"/><rect x="336" y="256" width="16" height="16" fill="#34c26b"/><rect x="336" y="272" width="16" height="16" fill="#34c26b"/><rect x="336" y="288" width="16" height="16" fill="#34c26b"/><rect x="336" y="304" width="16" height="16" fill="#34c26b"/><rect x="336" y="320" width="16" height="16" fill="#ffffff"/><rect x="336" y="336" width="16" height="16" fill="#ffffff"/><rect x="336" y="352" width="16" height="16" fill="#34c26b"/><rect x="336" y="368" width="16" height="16" fill="#1f8f4b"/><rect x="336" y="384" width="16" height="16" fill="#1f8f4b"/><rect x="336" y="400" width="16" height="16" fill="#1f8f4b"/><rect x="336" y="416" width="16" height="16" fill="#1a0d24"/><rect x="352" y="240" width="16" height="16" fill="#1a0d24"/><rect x="352" y="256" width="16" height="16" fill="#34c26b"/><rect x="352" y="272" width="16" height="16" fill="#34c26b"/><rect x="352" y="288" width="16" height="16" fill="#34c26b"/><rect x="352" y="304" width="16" height="16" fill="#ffffff"/><rect x="352" y="320" width="16" height="16" fill="#ffffff"/><rect x="352" y="336" width="16" height="16" fill="#34c26b"/><rect x="352" y="352" width="16" height="16" fill="#34c26b"/><rect x="352" y="368" width="16" height="16" fill="#1f8f4b"/><rect x="352" y="384" width="16" height="16" fill="#1f8f4b"/><rect x="352" y="400" width="16" height="16" fill="#1f8f4b"/><rect x="352" y="416" width="16" height="16" fill="#1a0d24"/><rect x="368" y="256" width="16" height="16" fill="#1a0d24"/><rect x="368" y="272" width="16" height="16" fill="#34c26b"/><rect x="368" y="288" width="16" height="16" fill="#ffffff"/><rect x="368" y="304" width="16" height="16" fill="#ffffff"/><rect x="368" y="320" width="16" height="16" fill="#34c26b"/><rect x="368" y="336" width="16" height="16" fill="#34c26b"/><rect x="368" y="352" width="16" height="16" fill="#34c26b"/><rect x="368" y="368" width="16" height="16" fill="#1f8f4b"/><rect x="368" y="384" width="16" height="16" fill="#1f8f4b"/><rect x="368" y="400" width="16" height="16" fill="#1a0d24"/><rect x="384" y="256" width="16" height="16" fill="#1a0d24"/><rect x="384" y="272" width="16" height="16" fill="#1f8f4b"/><rect x="384" y="288" width="16" height="16" fill="#ffffff"/><rect x="384" y="304" width="16" height="16" fill="#34c26b"/><rect x="384" y="320" width="16" height="16" fill="#34c26b"/><rect x="384" y="336" width="16" height="16" fill="#34c26b"/><rect x="384" y="352" width="16" height="16" fill="#1f8f4b"/><rect x="384" y="368" width="16" height="16" fill="#1f8f4b"/><rect x="384" y="384" width="16" height="16" fill="#1f8f4b"/><rect x="384" y="400" width="16" height="16" fill="#1a0d24"/><rect x="400" y="272" width="16" height="16" fill="#1a0d24"/><rect x="400" y="288" width="16" height="16" fill="#1a0d24"/><rect x="400" y="304" width="16" height="16" fill="#1f8f4b"/><rect x="400" y="320" width="16" height="16" fill="#1f8f4b"/><rect x="400" y="336" width="16" height="16" fill="#1f8f4b"/><rect x="400" y="352" width="16" height="16" fill="#1f8f4b"/><rect x="400" y="368" width="16" height="16" fill="#1a0d24"/><rect x="400" y="384" width="16" height="16" fill="#1a0d24"/><rect x="416" y="304" width="16" height="16" fill="#1a0d24"/><rect x="416" y="320" width="16" height="16" fill="#1a0d24"/><rect x="416" y="336" width="16" height="16" fill="#1a0d24"/><rect x="416" y="352" width="16" height="16" fill="#1a0d24"/></svg>